<svg width="334" height="544" xmlns="http://www.w3.org/2000/svg" xmlns:xlink="http://www.w3.org/1999/xlink" xml:space="preserve" overflow="hidden"><g transform="translate(-419 -490)"><path d="M422.5 997.5 440.5 492.5 512.5 492.5 494.5 997.5Z" stroke="#172C51" stroke-width="4.58333" stroke-miterlimit="8" fill="#666699" fill-rule="evenodd"/><path d="M578.506 580.665C657.687 586.118 717.852 648.965 712.889 721.037 707.926 793.11 639.713 847.116 560.533 841.663 560.211 841.641 559.889 841.618 559.567 841.594L565.638 762.032C600.842 764.623 631.119 743.949 633.263 715.855 635.406 687.762 608.605 662.887 573.4 660.296 573.275 660.287 573.149 660.278 573.024 660.269Z" stroke="#172C51" stroke-width="4.58333" stroke-miterlimit="8" fill="#5B9BD5" fill-rule="evenodd"/><path d="M458.5 1031.5 476.7 526.5 549.5 526.5 531.3 1031.5Z" stroke="#172C51" stroke-width="4.58333" stroke-miterlimit="8" fill="#FF7C80" fill-rule="evenodd"/><path d="M615.044 614.897C694.225 620.35 754.391 683.197 749.427 755.269 744.464 827.342 676.252 881.348 597.071 875.895 596.749 875.873 596.428 875.85 596.106 875.826L602.176 796.264C637.381 798.855 667.658 778.181 669.801 750.087 671.945 721.994 645.143 697.119 609.939 694.528 609.813 694.519 609.688 694.51 609.562 694.501Z" stroke="#172C51" stroke-width="4.58333" stroke-miterlimit="8" fill="#009999" fill-rule="evenodd"/></g></svg>