<svg width="314" height="388" xmlns="http://www.w3.org/2000/svg" xmlns:xlink="http://www.w3.org/1999/xlink" xml:space="preserve" overflow="hidden"><g transform="translate(-2572 -914)"><path d="M2575.5 1244.5 2600.9 927.5 2702.5 927.5 2677.1 1244.5Z" stroke="#172C51" stroke-width="4.58333" stroke-miterlimit="8" fill="#666699" fill-rule="evenodd"/><path d="M2699.4 928.207C2748.76 901.584 2803.82 921.82 2822.4 973.405 2840.97 1024.99 2816.02 1088.39 2766.66 1115.01 2740.92 1128.9 2712.25 1130.51 2687.99 1119.43Z" stroke="#172C51" stroke-width="4.58333" stroke-miterlimit="8" fill="#5B9BD5" fill-rule="evenodd"/><path d="M2630.5 1299.5 2655.9 982.5 2757.5 982.5 2732.1 1299.5Z" stroke="#172C51" stroke-width="4.58333" stroke-miterlimit="8" fill="#FF7C80" fill-rule="evenodd"/><path d="M2754.4 983.207C2803.76 956.584 2858.82 976.82 2877.4 1028.41 2895.97 1079.99 2871.02 1143.39 2821.66 1170.01 2795.92 1183.9 2767.25 1185.51 2742.99 1174.43Z" stroke="#172C51" stroke-width="4.58333" stroke-miterlimit="8" fill="#009999" fill-rule="evenodd"/></g></svg>